<?xml version="1.0" standalone="no"?><!DOCTYPE svg PUBLIC "-//W3C//DTD SVG 1.1//EN" "http://www.w3.org/Graphics/SVG/1.1/DTD/svg11.dtd"><svg t="1651590936577" class="icon" viewBox="0 0 1029 1024" version="1.1" xmlns="http://www.w3.org/2000/svg" p-id="4545" xmlns:xlink="http://www.w3.org/1999/xlink" width="200.9765625" height="200"><defs><style type="text/css"></style></defs><path d="M1013.76 1013.76H10.24V711.4752c14.1312 0 26.624-7.7824 33.3824-19.0464 2.2528-3.8912 8.192-3.8912 10.4448 0 6.7584 11.4688 19.0464 19.0464 33.3824 19.0464s26.624-7.7824 33.3824-19.0464c2.2528-3.8912 8.192-3.8912 10.4448 0 6.7584 11.4688 19.0464 19.0464 33.3824 19.0464 14.1312 0 26.624-7.7824 33.3824-19.0464 2.2528-3.8912 8.192-3.8912 10.4448 0 6.7584 11.4688 19.0464 19.0464 33.3824 19.0464 14.1312 0 26.624-7.7824 33.3824-19.0464 2.2528-3.8912 8.192-3.8912 10.4448 0 6.7584 11.4688 19.0464 19.0464 33.3824 19.0464s26.624-7.7824 33.3824-19.0464c2.2528-3.8912 8.192-3.8912 10.4448 0 6.7584 11.4688 19.0464 19.0464 33.3824 19.0464 14.1312 0 26.624-7.7824 33.3824-19.0464 2.2528-3.8912 8.192-3.8912 10.4448 0 6.7584 11.4688 19.0464 19.0464 33.3824 19.0464 14.1312 0 26.624-7.7824 33.3824-19.0464 2.2528-3.8912 8.192-3.8912 10.4448 0 6.7584 11.4688 19.0464 19.0464 33.3824 19.0464s26.624-7.7824 33.3824-19.0464c2.2528-3.8912 8.192-3.8912 10.4448 0 6.7584 11.4688 19.0464 19.0464 33.3824 19.0464s26.624-7.7824 33.3824-19.0464c2.2528-3.8912 8.192-3.8912 10.4448 0 6.7584 11.4688 19.0464 19.0464 33.3824 19.0464s26.624-7.7824 33.3824-19.0464c2.2528-3.8912 8.192-3.8912 10.4448 0 6.7584 11.4688 19.0464 19.0464 33.3824 19.0464s26.624-7.7824 33.3824-19.0464c2.2528-3.8912 8.192-3.8912 10.4448 0 6.7584 11.4688 19.0464 19.0464 33.3824 19.0464s26.624-7.7824 33.3824-19.0464c2.2528-3.8912 8.192-3.8912 10.4448 0 6.7584 11.4688 19.0464 19.0464 33.3824 19.0464 14.1312 0 26.624-7.7824 33.3824-19.0464 2.2528-3.8912 8.192-3.8912 10.4448 0 6.7584 11.4688 19.0464 19.0464 33.3824 19.0464V1013.76z" fill="#71CCFF" p-id="4546"></path><path d="M1013.76 779.8784c-15.1552 0-29.4912-7.168-38.5024-18.8416-9.216 11.8784-23.552 18.8416-38.5024 18.8416s-29.4912-7.168-38.5024-18.8416c-9.216 11.8784-23.552 18.8416-38.5024 18.8416s-29.4912-7.168-38.5024-18.8416c-9.216 11.8784-23.552 18.8416-38.5024 18.8416-15.1552 0-29.4912-7.168-38.5024-18.8416-9.216 11.8784-23.552 18.8416-38.5024 18.8416-15.1552 0-29.4912-7.168-38.5024-18.8416-9.216 11.8784-23.552 18.8416-38.5024 18.8416s-29.4912-7.168-38.5024-18.8416c-9.216 11.8784-23.552 18.8416-38.5024 18.8416-15.1552 0-29.4912-7.168-38.5024-18.8416-9.216 11.8784-23.552 18.8416-38.5024 18.8416s-29.4912-7.168-38.5024-18.8416c-9.216 11.8784-23.552 18.8416-38.5024 18.8416-15.1552 0-29.4912-7.168-38.5024-18.8416-9.216 11.8784-23.552 18.8416-38.5024 18.8416-15.1552 0-29.4912-7.168-38.5024-18.8416-9.216 11.8784-23.552 18.8416-38.5024 18.8416-15.1552 0-29.4912-7.168-38.5024-18.8416-9.216 11.8784-23.552 18.8416-38.5024 18.8416s-29.4912-7.168-38.5024-18.8416c-9.216 11.8784-23.552 18.8416-38.5024 18.8416s-29.4912-7.168-38.5024-18.8416c-9.216 11.8784-23.552 18.8416-38.5024 18.8416-5.7344 0-10.24-4.5056-10.24-10.24s4.5056-10.24 10.24-10.24c10.0352 0 19.456-5.3248 24.576-14.1312 2.8672-5.12 8.192-7.9872 14.1312-7.9872 5.9392 0 11.0592 3.072 14.1312 7.9872 5.12 8.6016 14.5408 14.1312 24.576 14.1312s19.456-5.3248 24.576-14.1312c2.8672-5.12 8.192-7.9872 14.1312-7.9872 5.9392 0 11.0592 3.072 14.1312 7.9872 5.12 8.6016 14.5408 14.1312 24.576 14.1312s19.456-5.3248 24.576-14.1312c2.8672-5.12 8.192-7.9872 14.1312-7.9872 5.9392 0 11.0592 3.072 14.1312 7.9872 5.12 8.6016 14.5408 14.1312 24.576 14.1312s19.456-5.3248 24.576-14.1312c2.8672-5.12 8.192-7.9872 14.1312-7.9872 5.9392 0 11.0592 3.072 14.1312 7.9872 5.12 8.6016 14.5408 14.1312 24.576 14.1312s19.456-5.3248 24.576-14.1312c2.8672-5.12 8.192-7.9872 14.1312-7.9872 5.9392 0 11.0592 3.072 14.1312 7.9872 5.12 8.6016 14.5408 14.1312 24.576 14.1312s19.456-5.3248 24.576-14.1312c2.8672-5.12 8.192-7.9872 14.1312-7.9872 5.9392 0 11.0592 3.072 14.1312 7.9872 5.12 8.6016 14.5408 14.1312 24.576 14.1312s19.456-5.3248 24.576-14.1312c2.8672-5.12 8.192-7.9872 14.1312-7.9872s11.0592 3.072 14.1312 7.9872c5.12 8.6016 14.5408 14.1312 24.576 14.1312s19.456-5.3248 24.576-14.1312c2.8672-5.12 8.192-7.9872 14.1312-7.9872 5.9392 0 11.0592 3.072 14.1312 7.9872 5.12 8.6016 14.5408 14.1312 24.576 14.1312s19.456-5.3248 24.576-14.1312c2.8672-5.12 8.192-7.9872 14.1312-7.9872 5.9392 0 11.0592 3.072 14.1312 7.9872 5.12 8.6016 14.5408 14.1312 24.576 14.1312s19.456-5.3248 24.576-14.1312c2.8672-5.12 8.192-7.9872 14.1312-7.9872 5.9392 0 11.0592 3.072 14.1312 7.9872 5.12 8.6016 14.5408 14.1312 24.576 14.1312s19.456-5.3248 24.576-14.1312c2.8672-5.12 8.192-7.9872 14.1312-7.9872 5.9392 0 11.0592 3.072 14.1312 7.9872 5.12 8.6016 14.5408 14.1312 24.576 14.1312s19.456-5.3248 24.576-14.1312c2.8672-5.12 8.192-7.9872 14.1312-7.9872 5.9392 0 11.0592 3.072 14.1312 7.9872 5.12 8.6016 14.5408 14.1312 24.576 14.1312s19.456-5.3248 24.576-14.1312c2.8672-5.12 8.192-7.9872 14.1312-7.9872 5.9392 0 11.0592 3.072 14.1312 7.9872 5.12 8.6016 14.5408 14.1312 24.576 14.1312 5.7344 0 10.24 4.5056 10.24 10.24s-9.8304 10.24-15.5648 10.24zM1013.76 840.2944c-15.1552 0-29.4912-7.168-38.5024-18.8416-9.216 11.8784-23.552 18.8416-38.5024 18.8416s-29.4912-7.168-38.5024-18.8416c-9.216 11.8784-23.552 18.8416-38.5024 18.8416s-29.4912-7.168-38.5024-18.8416c-9.216 11.8784-23.552 18.8416-38.5024 18.8416-15.1552 0-29.4912-7.168-38.5024-18.8416-9.216 11.8784-23.552 18.8416-38.5024 18.8416-15.1552 0-29.4912-7.168-38.5024-18.8416-9.216 11.8784-23.552 18.8416-38.5024 18.8416-15.1552 0-29.4912-7.168-38.5024-18.8416-9.216 11.8784-23.552 18.8416-38.5024 18.8416s-29.4912-7.168-38.5024-18.8416c-9.216 11.8784-23.552 18.8416-38.5024 18.8416s-29.4912-7.168-38.5024-18.8416c-9.216 11.8784-23.552 18.8416-38.5024 18.8416-15.1552 0-29.4912-7.168-38.5024-18.8416-9.216 11.8784-23.552 18.8416-38.5024 18.8416-15.1552 0-29.4912-7.168-38.5024-18.8416-9.216 11.8784-23.552 18.8416-38.5024 18.8416-15.1552 0-29.4912-7.168-38.5024-18.8416-9.216 11.8784-23.552 18.8416-38.5024 18.8416S135.168 833.1264 125.952 821.248c-9.216 11.8784-23.552 18.8416-38.5024 18.8416s-29.4912-7.168-38.5024-18.8416c-9.216 11.8784-23.552 18.8416-38.5024 18.8416-5.7344 0-10.24-4.5056-10.24-10.24s4.5056-10.24 10.24-10.24c10.0352 0 19.456-5.3248 24.576-14.1312 2.8672-5.12 8.192-7.9872 14.1312-7.9872 5.9392 0 11.0592 3.072 14.1312 7.9872 5.12 8.6016 14.5408 14.1312 24.576 14.1312s19.456-5.3248 24.576-14.1312c2.8672-5.12 8.192-7.9872 14.1312-7.9872 5.9392 0 11.0592 3.072 14.1312 7.9872 5.12 8.6016 14.5408 14.1312 24.576 14.1312s19.456-5.3248 24.576-14.1312c2.8672-5.12 8.192-7.9872 14.1312-7.9872 5.9392 0 11.0592 3.072 14.1312 7.9872 5.12 8.6016 14.5408 14.1312 24.576 14.1312s19.456-5.3248 24.576-14.1312c2.8672-5.12 8.192-7.9872 14.1312-7.9872 5.9392 0 11.0592 3.072 14.1312 7.9872 5.12 8.6016 14.5408 14.1312 24.576 14.1312s19.456-5.3248 24.576-14.1312c2.8672-5.12 8.192-7.9872 14.1312-7.9872 5.9392 0 11.0592 3.072 14.1312 7.9872 5.12 8.6016 14.5408 14.1312 24.576 14.1312s19.456-5.3248 24.576-14.1312c2.8672-5.12 8.192-7.9872 14.1312-7.9872 5.9392 0 11.0592 3.072 14.1312 7.9872 5.12 8.6016 14.5408 14.1312 24.576 14.1312s19.456-5.3248 24.576-14.1312c2.8672-5.12 8.192-7.9872 14.1312-7.9872s11.0592 3.072 14.1312 7.9872c5.12 8.6016 14.5408 14.1312 24.576 14.1312s19.456-5.3248 24.576-14.1312c2.8672-5.12 8.192-7.9872 14.1312-7.9872 5.9392 0 11.0592 3.072 14.1312 7.9872 5.12 8.6016 14.5408 14.1312 24.576 14.1312s19.456-5.3248 24.576-14.1312c2.8672-5.12 8.192-7.9872 14.1312-7.9872 5.9392 0 11.0592 3.072 14.1312 7.9872 5.12 8.6016 14.5408 14.1312 24.576 14.1312s19.456-5.3248 24.576-14.1312c2.8672-5.12 8.192-7.9872 14.1312-7.9872 5.9392 0 11.0592 3.072 14.1312 7.9872 5.12 8.6016 14.5408 14.1312 24.576 14.1312s19.456-5.3248 24.576-14.1312c2.8672-5.12 8.192-7.9872 14.1312-7.9872 5.9392 0 11.0592 3.072 14.1312 7.9872 5.12 8.6016 14.5408 14.1312 24.576 14.1312s19.456-5.3248 24.576-14.1312c2.8672-5.12 8.192-7.9872 14.1312-7.9872 5.9392 0 11.0592 3.072 14.1312 7.9872 5.12 8.6016 14.5408 14.1312 24.576 14.1312s19.456-5.3248 24.576-14.1312c2.8672-5.12 8.192-7.9872 14.1312-7.9872 5.9392 0 11.0592 3.072 14.1312 7.9872 5.12 8.6016 14.5408 14.1312 24.576 14.1312 5.7344 0 10.24 4.5056 10.24 10.24s-7.5776 10.4448-13.312 10.4448z" fill="#C0E7F9" p-id="4547"></path><path d="M1013.76 721.7152c-15.1552 0-29.4912-7.168-38.5024-18.8416-9.216 11.8784-23.552 18.8416-38.5024 18.8416s-29.4912-7.168-38.5024-18.8416c-9.216 11.8784-23.552 18.8416-38.5024 18.8416s-29.4912-7.168-38.5024-18.8416c-9.216 11.8784-23.552 18.8416-38.5024 18.8416-15.1552 0-29.4912-7.168-38.5024-18.8416-9.216 11.8784-23.552 18.8416-38.5024 18.8416-5.7344 0-10.24-4.5056-10.24-10.24s4.5056-10.24 10.24-10.24c10.0352 0 19.456-5.3248 24.576-14.1312 2.8672-5.12 8.192-7.9872 14.1312-7.9872 5.9392 0 11.0592 3.072 14.1312 7.9872 5.12 8.6016 14.5408 14.1312 24.576 14.1312s19.456-5.3248 24.576-14.1312c2.8672-5.12 8.192-7.9872 14.1312-7.9872 5.9392 0 11.0592 3.072 14.1312 7.9872 5.12 8.6016 14.5408 14.1312 24.576 14.1312s19.456-5.3248 24.576-14.1312c2.8672-5.12 8.192-7.9872 14.1312-7.9872 5.9392 0 11.0592 3.072 14.1312 7.9872 5.12 8.6016 14.5408 14.1312 24.576 14.1312s19.456-5.3248 24.576-14.1312c2.8672-5.12 8.192-7.9872 14.1312-7.9872 5.9392 0 11.0592 3.072 14.1312 7.9872 5.12 8.6016 14.5408 14.1312 24.576 14.1312 5.7344 0 10.24 4.5056 10.24 10.24s-6.144 10.24-11.8784 10.24zM627.712 721.7152c-15.1552 0-29.4912-7.168-38.5024-18.8416-9.216 11.8784-23.552 18.8416-38.5024 18.8416s-29.4912-7.168-38.5024-18.8416c-9.216 11.8784-23.552 18.8416-38.5024 18.8416s-29.4912-7.168-38.5024-18.8416c-9.216 11.8784-23.552 18.8416-38.5024 18.8416-5.7344 0-10.24-4.5056-10.24-10.24s4.5056-10.24 10.24-10.24c10.0352 0 19.456-5.3248 24.576-14.1312 2.8672-5.12 8.192-7.9872 14.1312-7.9872 5.9392 0 11.0592 3.072 14.1312 7.9872 5.12 8.6016 14.5408 14.1312 24.576 14.1312s19.456-5.3248 24.576-14.1312c2.8672-5.12 8.192-7.9872 14.1312-7.9872s11.0592 3.072 14.1312 7.9872c5.12 8.6016 14.5408 14.1312 24.576 14.1312s19.456-5.3248 24.576-14.1312c2.8672-5.12 8.192-7.9872 14.1312-7.9872 5.9392 0 11.0592 3.072 14.1312 7.9872 5.12 8.6016 14.5408 14.1312 24.576 14.1312 5.7344 0 10.24 4.5056 10.24 10.24s-5.7344 10.24-11.4688 10.24zM319.0784 721.7152c-15.1552 0-29.4912-7.168-38.5024-18.8416-9.216 11.8784-23.552 18.8416-38.5024 18.8416-15.1552 0-29.4912-7.168-38.5024-18.8416-9.216 11.8784-23.552 18.8416-38.5024 18.8416s-29.4912-7.168-38.5024-18.8416c-9.216 11.8784-23.552 18.8416-38.5024 18.8416s-29.4912-7.168-38.5024-18.8416c-9.216 11.8784-23.552 18.8416-38.5024 18.8416-5.7344 0-10.24-4.5056-10.24-10.24s4.5056-10.24 10.24-10.24c10.0352 0 19.456-5.3248 24.576-14.1312 2.8672-5.12 8.192-7.9872 14.1312-7.9872 5.9392 0 11.0592 3.072 14.1312 7.9872 5.12 8.6016 14.5408 14.1312 24.576 14.1312s19.456-5.3248 24.576-14.1312c2.8672-5.12 8.192-7.9872 14.1312-7.9872 5.9392 0 11.0592 3.072 14.1312 7.9872 5.12 8.6016 14.5408 14.1312 24.576 14.1312s19.456-5.3248 24.576-14.1312c2.8672-5.12 8.192-7.9872 14.1312-7.9872 5.9392 0 11.0592 3.072 14.1312 7.9872 5.12 8.6016 14.5408 14.1312 24.576 14.1312s19.456-5.3248 24.576-14.1312c2.8672-5.12 8.192-7.9872 14.1312-7.9872 5.9392 0 11.0592 3.072 14.1312 7.9872 5.12 8.6016 14.5408 14.1312 24.576 14.1312 5.7344 0 10.24 4.5056 10.24 10.24s-6.3488 10.24-11.8784 10.24zM1013.76 1024H10.24c-5.7344 0-10.24-4.5056-10.24-10.24s4.5056-10.24 10.24-10.24h1003.52c5.7344 0 10.24 4.5056 10.24 10.24s-4.5056 10.24-10.24 10.24z" fill="#231F20" p-id="4548"></path><path d="M145.408 1013.76h733.184c0-75.776-61.44-137.216-137.216-137.216H282.624c-75.776 0-137.216 61.44-137.216 137.216z" fill="#F9B630" p-id="4549"></path><path d="M878.592 1024H145.408c-5.7344 0-10.24-4.5056-10.24-10.24 0-81.3056 66.1504-147.456 147.456-147.456h458.752c81.3056 0 147.456 66.1504 147.456 147.456 0 5.7344-4.5056 10.24-10.24 10.24zM156.0576 1003.52h711.8848c-5.3248-65.3312-60.0064-116.736-126.5664-116.736H282.624c-66.56 0-121.2416 51.4048-126.5664 116.736z" fill="#231F20" p-id="4550"></path><path d="M586.1376 84.992c0-41.3696-33.5872-74.9568-75.1616-74.752-41.3696 0.2048-74.5472 34.2016-74.5472 75.5712v7.7824c0 6.3488 5.12 11.6736 11.6736 11.6736h126.3616c6.3488 0 11.6736-5.12 11.6736-11.6736v-8.6016z" fill="#FC3A6D" p-id="4551"></path><path d="M574.464 115.5072h-126.3616c-12.0832 0-21.9136-9.8304-21.9136-21.9136v-7.7824c0-47.104 38.0928-85.6064 84.7872-85.8112h0.2048c22.7328 0 44.032 8.8064 60.0064 24.7808 16.1792 15.9744 24.9856 37.4784 24.9856 60.2112v8.6016c0.2048 12.0832-9.6256 21.9136-21.7088 21.9136zM511.3856 20.48h-0.2048c-35.4304 0.2048-64.3072 29.4912-64.3072 65.3312v7.7824c0 0.8192 0.6144 1.4336 1.4336 1.4336h126.3616c0.8192 0 1.4336-0.6144 1.4336-1.4336v-8.6016c0-17.2032-6.7584-33.5872-19.0464-45.6704-12.288-12.0832-28.4672-18.8416-45.6704-18.8416z" fill="#231F20" p-id="4552"></path><path d="M484.9664 74.5472c-2.2528 0-4.5056-0.6144-6.3488-2.2528a10.15808 10.15808 0 0 1-1.8432-14.336c8.3968-10.6496 20.8896-16.7936 34.4064-16.9984 5.7344 0 10.24 4.5056 10.24 10.24s-4.5056 10.24-10.24 10.24c-7.168 0-13.7216 3.2768-18.2272 9.0112-2.048 2.6624-4.9152 4.096-7.9872 4.096z" fill="#FFA9C8" p-id="4553"></path><path d="M436.4288 105.2672h149.7088v82.3296h-149.7088z" fill="#71CCFF" p-id="4554"></path><path d="M586.1376 197.8368h-149.7088c-5.7344 0-10.24-4.5056-10.24-10.24V105.2672c0-5.7344 4.5056-10.24 10.24-10.24h149.7088c5.7344 0 10.24 4.5056 10.24 10.24v82.3296c0 5.5296-4.5056 10.24-10.24 10.24z m-139.4688-20.48h129.2288V115.5072h-129.2288v61.8496z" fill="#231F20" p-id="4555"></path><path d="M511.3856 105.2672c-22.7328 0-41.1648 18.432-41.1648 41.1648 0 22.7328 18.432 41.1648 41.1648 41.1648s41.1648-18.432 41.1648-41.1648c0-22.7328-18.432-41.1648-41.1648-41.1648z" fill="#F9B630" p-id="4556"></path><path d="M511.3856 197.8368c-28.2624 0-51.4048-23.1424-51.4048-51.4048s23.1424-51.4048 51.4048-51.4048 51.4048 23.1424 51.4048 51.4048-23.1424 51.4048-51.4048 51.4048z m0-82.3296c-16.9984 0-30.9248 13.9264-30.9248 30.9248s13.9264 30.9248 30.9248 30.9248 30.9248-13.9264 30.9248-30.9248-13.9264-30.9248-30.9248-30.9248z" fill="#231F20" p-id="4557"></path><path d="M660.6848 752.2304l-64.3072-545.9968c-1.2288-10.6496-10.24-18.8416-21.0944-18.8416h-128c-10.8544 0-19.8656 7.9872-21.0944 18.8416l-64.3072 545.9968c-1.4336 12.6976 8.3968 23.7568 21.0944 23.7568h256.6144c12.6976 0 22.7328-11.0592 21.0944-23.7568z" fill="#FC3A6D" p-id="4558"></path><path d="M385.2288 628.736c49.152 0 89.2928-40.1408 89.2928-89.2928 0-38.2976-24.1664-71.0656-58.1632-83.7632-4.3008-8.192-10.24-15.5648-16.9984-21.7088l-22.9376 194.56h8.8064z" fill="#E2074B" p-id="4559"></path><path d="M639.5904 786.2272H382.976c-9.0112 0-17.6128-3.8912-23.552-10.6496-5.9392-6.7584-8.8064-15.7696-7.7824-24.576l64.3072-545.9968c1.8432-15.7696 15.36-27.8528 31.3344-27.8528h128c15.9744 0 29.4912 11.8784 31.3344 27.8528l64.3072 545.9968c1.024 9.0112-1.8432 17.8176-7.7824 24.576s-14.5408 10.6496-23.552 10.6496zM447.2832 197.8368c-5.5296 0-10.24 4.096-10.8544 9.6256l-64.3072 545.9968c-0.4096 3.072 0.6144 6.144 2.6624 8.6016s5.12 3.6864 8.192 3.6864h256.6144c3.2768 0 6.144-1.2288 8.192-3.6864s3.072-5.5296 2.6624-8.6016l-64.3072-545.9968c-0.6144-5.5296-5.3248-9.6256-10.8544-9.6256h-128z" fill="#231F20" p-id="4560"></path><path d="M405.2992 745.2672h-1.2288c-5.5296-0.6144-9.6256-5.7344-9.0112-11.4688L454.656 227.328c0.6144-5.5296 5.7344-9.6256 11.4688-9.0112 5.5296 0.6144 9.6256 5.7344 9.0112 11.4688l-59.5968 506.4704c-0.8192 5.12-5.12 9.0112-10.24 9.0112z" fill="#FFA9C8" p-id="4561"></path><path d="M398.9504 437.8624l201.1136-201.1136-3.6864-30.5152c-1.2288-10.6496-10.24-18.8416-21.0944-18.8416h-39.3216L414.1056 309.248l-15.1552 128.6144zM626.0736 458.1376l-11.8784-101.376L381.1328 589.824l-15.1552 128.4096zM652.0832 679.3216l-11.8784-101.1712-197.8368 197.8368h113.2544z" fill="#FFFFFF" p-id="4562"></path><path d="M398.9504 448.1024c-1.4336 0-3.072-0.4096-4.5056-1.024-3.8912-1.8432-6.144-6.144-5.7344-10.4448l15.1552-128.4096c0.2048-2.2528 1.2288-4.5056 2.8672-6.144L528.7936 180.224c1.8432-1.8432 4.5056-3.072 7.168-3.072h39.3216c15.9744 0 29.4912 11.8784 31.3344 27.8528L610.304 235.52c0.4096 3.072-0.6144 6.144-2.8672 8.3968l-201.1136 201.1136c-2.048 2.048-4.7104 3.072-7.3728 3.072z m24.9856-133.9392l-11.264 95.6416 176.7424-176.7424-3.072-25.6c-0.6144-5.5296-5.3248-9.6256-10.8544-9.6256h-35.2256L423.936 314.1632zM365.9776 728.4736c-1.4336 0-3.072-0.4096-4.5056-1.024-3.8912-1.8432-6.144-6.144-5.7344-10.4448l15.1552-128.4096c0.2048-2.2528 1.2288-4.5056 2.8672-6.144l233.0624-233.0624c2.8672-2.8672 6.9632-3.6864 10.6496-2.4576 3.6864 1.2288 6.3488 4.5056 6.7584 8.3968l11.8784 101.376c0.4096 3.072-0.6144 6.144-2.8672 8.3968l-260.096 260.096c-1.8432 2.2528-4.5056 3.2768-7.168 3.2768z m24.7808-133.9392l-11.264 95.6416 235.7248-235.7248-8.8064-75.3664-215.6544 215.4496zM555.6224 786.2272H442.368c-4.096 0-7.7824-2.4576-9.4208-6.3488-1.6384-3.8912-0.6144-8.192 2.2528-11.0592l197.8368-197.8368c2.8672-2.8672 6.9632-3.6864 10.6496-2.4576 3.6864 1.2288 6.3488 4.5056 6.7584 8.3968l11.8784 101.376c0.4096 3.072-0.6144 6.144-2.8672 8.3968l-96.4608 96.4608c-2.048 2.048-4.7104 3.072-7.3728 3.072z m-88.4736-20.48h84.3776l90.112-90.112-8.8064-75.3664-165.6832 165.4784z" fill="#231F20" p-id="4563"></path><path d="M727.6544 940.8512v-89.2928c0-41.7792-33.792-75.5712-75.5712-75.5712H370.688c-41.7792 0-75.5712 33.792-75.5712 75.5712v89.2928c0 7.5776 6.144 13.5168 13.5168 13.5168h405.2992c7.5776 0 13.7216-6.144 13.7216-13.5168z" fill="#FC3A6D" p-id="4564"></path><path d="M713.9328 964.608H308.6336c-13.1072 0-23.7568-10.6496-23.7568-23.7568v-89.2928c0-47.3088 38.5024-85.8112 85.8112-85.8112h281.3952c47.3088 0 85.8112 38.5024 85.8112 85.8112v89.2928c0 13.1072-10.6496 23.7568-23.9616 23.7568zM370.688 786.2272c-36.0448 0-65.3312 29.2864-65.3312 65.3312v89.2928c0 1.8432 1.4336 3.2768 3.2768 3.2768h405.2992c1.8432 0 3.2768-1.4336 3.2768-3.2768v-89.2928c0-36.0448-29.2864-65.3312-65.3312-65.3312H370.688z" fill="#231F20" p-id="4565"></path><path d="M336.0768 923.648c-5.7344 0-10.24-4.5056-10.24-10.24v-61.8496c0-24.7808 20.0704-44.8512 44.8512-44.8512 5.7344 0 10.24 4.5056 10.24 10.24s-4.5056 10.24-10.24 10.24c-13.5168 0-24.3712 10.8544-24.3712 24.3712V913.408c0 5.7344-4.7104 10.24-10.24 10.24z" fill="#FFA9C8" p-id="4566"></path><path d="M337.92 964.608h-70.2464c-5.7344 0-10.24-4.5056-10.24-10.24s4.5056-10.24 10.24-10.24H337.92c5.7344 0 10.24 4.5056 10.24 10.24s-4.7104 10.24-10.24 10.24zM225.28 964.608h-6.144c-5.7344 0-10.24-4.5056-10.24-10.24s4.5056-10.24 10.24-10.24h6.144c5.7344 0 10.24 4.5056 10.24 10.24s-4.7104 10.24-10.24 10.24zM760.4224 964.608H690.176c-5.7344 0-10.24-4.5056-10.24-10.24s4.5056-10.24 10.24-10.24h70.2464c5.7344 0 10.24 4.5056 10.24 10.24s-4.5056 10.24-10.24 10.24zM808.96 964.608h-6.144c-5.7344 0-10.24-4.5056-10.24-10.24s4.5056-10.24 10.24-10.24h6.144c5.7344 0 10.24 4.5056 10.24 10.24s-4.5056 10.24-10.24 10.24z" fill="#231F20" p-id="4567"></path><path d="M551.1168 954.368h-79.6672v-59.1872c0-16.5888 13.5168-30.1056 30.1056-30.1056h19.6608c16.5888 0 30.1056 13.5168 30.1056 30.1056V954.368z" fill="#7A7979" p-id="4568"></path><path d="M551.1168 964.608h-79.6672c-5.7344 0-10.24-4.5056-10.24-10.24v-59.1872c0-22.1184 18.0224-40.3456 40.3456-40.3456h19.6608c22.1184 0 40.3456 18.0224 40.3456 40.3456V954.368c-0.2048 5.7344-4.7104 10.24-10.4448 10.24z m-69.4272-20.48h59.1872v-48.9472c0-10.8544-8.8064-19.8656-19.8656-19.8656h-19.6608c-10.8544 0-19.8656 8.8064-19.8656 19.8656V944.128zM770.048 392.8064h-62.0544c-5.7344 0-10.24-4.5056-10.24-10.24s4.5056-10.24 10.24-10.24H770.048c5.7344 0 10.24 4.5056 10.24 10.24s-4.7104 10.24-10.24 10.24zM674.2016 392.8064h-3.4816c-5.7344 0-10.24-4.5056-10.24-10.24s4.5056-10.24 10.24-10.24h3.4816c5.7344 0 10.24 4.5056 10.24 10.24s-4.7104 10.24-10.24 10.24z" fill="#231F20" p-id="4569"></path><path d="M770.048 285.9008c-26.624 0-48.3328 21.7088-48.3328 48.3328 0 26.624 21.7088 48.3328 48.3328 48.3328h195.3792c26.624 0 48.3328-21.7088 48.3328-48.3328 0-26.624-21.7088-48.3328-48.3328-48.3328h-1.024c0-19.456-15.7696-35.0208-35.0208-35.0208-19.456 0-35.0208 15.7696-35.0208 35.0208 0-33.792-27.2384-61.0304-61.0304-61.0304s-61.0304 27.2384-61.0304 61.0304H770.048z" fill="#71CCFF" p-id="4570"></path><path d="M965.4272 392.8064H770.048c-32.3584 0-58.5728-26.2144-58.5728-58.5728 0-29.9008 22.3232-54.4768 51.2-58.1632 4.7104-34.6112 34.6112-61.44 70.656-61.44 27.8528 0 52.0192 16.1792 63.6928 39.5264 8.192-8.3968 19.6608-13.5168 32.3584-13.5168 21.7088 0 39.7312 15.36 44.2368 35.6352 28.4672 3.8912 50.3808 28.4672 50.3808 57.9584 0 32.3584-26.2144 58.5728-58.5728 58.5728zM770.048 296.1408c-21.0944 0-38.0928 16.9984-38.0928 38.0928s16.9984 38.0928 38.0928 38.0928h195.3792c21.0944 0 38.0928-16.9984 38.0928-38.0928s-16.9984-38.0928-38.0928-38.0928h-1.024c-5.7344 0-10.24-4.5056-10.24-10.24 0-13.7216-11.0592-24.7808-24.7808-24.7808s-24.7808 11.0592-24.7808 24.7808c0 5.7344-4.5056 10.24-10.24 10.24s-10.24-4.5056-10.24-10.24c0-28.0576-22.7328-50.7904-50.7904-50.7904s-50.7904 22.7328-50.7904 50.7904c0 5.7344-4.5056 10.24-10.24 10.24H770.048z" fill="#231F20" p-id="4571"></path><path d="M793.8048 333.824H770.048c-5.7344 0-10.24-4.5056-10.24-10.24s4.5056-10.24 10.24-10.24h23.7568c3.2768 0 5.9392-2.6624 5.9392-5.9392V286.72c0-17.6128 13.312-32.5632 30.5152-34.2016 9.4208-0.8192 18.8416 2.2528 25.8048 8.6016 6.9632 6.3488 11.0592 15.36 11.0592 24.9856 0 5.7344-4.5056 10.24-10.24 10.24s-10.24-4.5056-10.24-10.24c0-3.6864-1.6384-7.168-4.3008-9.8304-2.8672-2.4576-6.3488-3.6864-10.24-3.2768-6.7584 0.6144-11.8784 6.7584-11.8784 13.7216v20.8896c-0.2048 14.336-12.0832 26.2144-26.4192 26.2144z" fill="#C0E7F9" p-id="4572"></path><path d="M189.8496 598.016H127.7952c-5.7344 0-10.24-4.5056-10.24-10.24s4.5056-10.24 10.24-10.24h62.0544c5.7344 0 10.24 4.5056 10.24 10.24s-4.5056 10.24-10.24 10.24zM94.0032 598.016h-3.4816c-5.7344 0-10.24-4.5056-10.24-10.24s4.5056-10.24 10.24-10.24h3.4816c5.7344 0 10.24 4.5056 10.24 10.24s-4.5056 10.24-10.24 10.24z" fill="#231F20" p-id="4573"></path><path d="M189.8496 491.1104c-26.624 0-48.3328 21.7088-48.3328 48.3328S163.2256 587.776 189.8496 587.776h195.3792c26.624 0 48.3328-21.7088 48.3328-48.3328s-21.7088-48.3328-48.3328-48.3328h-1.024c0-19.456-15.7696-35.0208-35.0208-35.0208-19.456 0-35.0208 15.7696-35.0208 35.0208 0-33.792-27.2384-61.0304-61.0304-61.0304s-61.0304 27.2384-61.0304 61.0304h-2.2528z" fill="#71CCFF" p-id="4574"></path><path d="M385.2288 598.016H189.8496c-32.3584 0-58.5728-26.2144-58.5728-58.5728 0-29.9008 22.3232-54.4768 51.2-58.1632 4.7104-34.6112 34.6112-61.44 70.656-61.44 27.8528 0 52.0192 16.1792 63.6928 39.5264 8.192-8.3968 19.6608-13.5168 32.3584-13.5168 21.7088 0 39.7312 15.36 44.2368 35.6352 28.4672 3.8912 50.3808 28.4672 50.3808 57.9584 0 32.1536-26.2144 58.5728-58.5728 58.5728z m-195.3792-96.6656c-21.0944 0-38.0928 16.9984-38.0928 38.0928S168.7552 577.536 189.8496 577.536h195.3792c21.0944 0 38.0928-16.9984 38.0928-38.0928s-16.9984-38.0928-38.0928-38.0928h-1.024c-5.7344 0-10.24-4.5056-10.24-10.24 0-13.7216-11.0592-24.7808-24.7808-24.7808s-24.7808 11.0592-24.7808 24.7808c0 5.7344-4.5056 10.24-10.24 10.24s-10.24-4.5056-10.24-10.24c0-28.0576-22.7328-50.7904-50.7904-50.7904s-50.7904 22.7328-50.7904 50.7904c0 5.7344-4.5056 10.24-10.24 10.24h-2.2528z" fill="#231F20" p-id="4575"></path><path d="M213.6064 538.8288H189.8496c-5.7344 0-10.24-4.5056-10.24-10.24s4.5056-10.24 10.24-10.24h23.7568c3.2768 0 5.9392-2.6624 5.9392-5.9392V491.52c0-17.6128 13.312-32.5632 30.5152-34.2016 9.4208-0.8192 18.8416 2.2528 25.8048 8.6016 6.9632 6.3488 11.0592 15.36 11.0592 24.9856 0 5.7344-4.5056 10.24-10.24 10.24s-10.24-4.5056-10.24-10.24c0-3.6864-1.6384-7.168-4.3008-9.8304-2.8672-2.4576-6.3488-3.6864-10.24-3.2768-6.7584 0.6144-11.8784 6.7584-11.8784 13.7216v20.8896c0 14.5408-11.8784 26.4192-26.4192 26.4192z" fill="#C0E7F9" p-id="4576"></path></svg>